<?xml version="1.0" encoding="UTF-8" standalone="no"?>
<!-- Created with Inkscape (http://www.inkscape.org/) -->

<svg
   width="2560"
   height="1440"
   viewBox="0 0 2560 1440"
   version="1.1"
   id="svg1"
   xml:space="preserve"
   inkscape:version="1.4.2 (f4327f4, 2025-05-13)"
   sodipodi:docname="full_logo_final.svg"
   xmlns:inkscape="http://www.inkscape.org/namespaces/inkscape"
   xmlns:sodipodi="http://sodipodi.sourceforge.net/DTD/sodipodi-0.dtd"
   xmlns="http://www.w3.org/2000/svg"
   xmlns:svg="http://www.w3.org/2000/svg"><sodipodi:namedview
     id="namedview1"
     pagecolor="#ffffff"
     bordercolor="#000000"
     borderopacity="0.25"
     inkscape:showpageshadow="2"
     inkscape:pageopacity="0.0"
     inkscape:pagecheckerboard="0"
     inkscape:deskcolor="#d1d1d1"
     inkscape:document-units="px"
     inkscape:zoom="0.61458333"
     inkscape:cx="2023.322"
     inkscape:cy="801.35594"
     inkscape:window-width="3840"
     inkscape:window-height="2126"
     inkscape:window-x="-11"
     inkscape:window-y="-11"
     inkscape:window-maximized="1"
     inkscape:current-layer="layer1"><inkscape:page
       x="0"
       y="0"
       width="2560"
       height="1440"
       id="page2"
       margin="0"
       bleed="0" /></sodipodi:namedview><defs
     id="defs1"><rect
       x="444.2034"
       y="442.57626"
       width="1016.9492"
       height="216.40678"
       id="rect2" /><rect
       x="444.2034"
       y="442.57626"
       width="1016.9492"
       height="216.40678"
       id="rect2-2" /></defs><g
     inkscape:label="Layer 1"
     inkscape:groupmode="layer"
     id="layer1"
     style="display:inline"><g
       id="g1"
       transform="matrix(4.4656185,-3.6202239,3.6202239,4.4656185,951.72069,326.21586)"><g
         id="g295"
         style="display:inline"><g
           id="g294"
           transform="matrix(1.2073185,-0.14359333,0.13715718,1.2109015,-25.657839,29.54333)"
           style="display:inline"><rect
             style="display:inline;fill:#0e2013;fill-opacity:1;stroke-width:0.198882"
             id="rect279"
             width="1.9235246"
             height="62.351273"
             x="88.517212"
             y="-5.9948926"
             transform="matrix(0.90430419,0.42688867,-0.40184256,0.91570877,0,0)"
             ry="0.96176231" /><path
             d="m 74.103173,100.46967 -0.656841,4.22215 7.232408,22.3807 c 0.142397,0.44065 0.611547,0.68037 1.05206,0.53756 l 0.239357,-0.0775 c 0.440513,-0.1428 0.680752,-0.61261 0.538355,-1.05325 z"
             style="display:inline;fill:#0e2013;fill-opacity:1;stroke-width:0.220261"
             id="path279" /><path
             d="m 69.168515,85.198504 -0.986454,3.203892 2.896144,8.961185 0.656841,-4.222544 z"
             style="display:inline;fill:#0e2013;fill-opacity:1;stroke-width:0.220261"
             id="path280" /><path
             d="m 64.94517,74.038968 c -0.08227,7.69e-4 -0.165906,0.01454 -0.248502,0.04132 l -0.239357,0.07753 c -0.440513,0.142802 -0.680355,0.612604 -0.537958,1.053252 l 2.407489,7.449896 0.986057,-3.203892 -1.563774,-4.839226 c -0.115698,-0.35803 -0.447434,-0.583567 -0.803955,-0.578912 z"
             style="display:inline;fill:#0e2013;fill-opacity:1;stroke-width:0.220261"
             id="path281" /><rect
             style="display:inline;fill:#0e2013;fill-opacity:1;stroke-width:0.221231"
             id="rect281"
             width="1.9235246"
             height="74.325455"
             x="88.479019"
             y="15.173661"
             transform="rotate(17.109264)"
             ry="0.96176231" /><rect
             style="display:inline;fill:#0e2013;fill-opacity:1;stroke-width:0.221231"
             id="rect282"
             width="1.9235246"
             height="104.40132"
             x="85.97406"
             y="32.037128"
             transform="rotate(8.8454882)"
             ry="0.96176231" /><rect
             style="display:inline;fill:#0e2013;fill-opacity:1;stroke-width:0.176727"
             id="rect283"
             width="1.9235243"
             height="126.3179"
             x="80.672134"
             y="36.309669"
             transform="matrix(0.99999999,1.5928217e-4,1.8724802e-4,0.99999998,0,0)" /><path
             d="m 87.630827,123.50047 v 16.59279 l 25.044463,-12.97647 c 0.1792,-0.0928 0.3736,-0.12388 0.55914,-0.10129 0.13403,-0.009 0.27203,0.002 0.4098,0.0357 l 26.47538,6.427 -9.30486,-15.32465 -22.37899,-5.43274 z"
             style="display:inline;fill:#004d11;fill-opacity:1;stroke:#00350f;stroke-width:0;stroke-opacity:1"
             id="path283" /><path
             d="m 87.630827,121.3342 20.163113,-10.44795 c 0.1733,-0.0898 0.36107,-0.12176 0.54105,-0.10335 0.11448,-0.0149 0.23371,-0.009 0.35295,0.0196 l 20.7176,5.02967 -10.01696,-16.498738 -16.55093,-4.01836 -15.206823,7.878588 z"
             style="display:inline;fill:#004d11;fill-opacity:1;stroke:#00350f;stroke-width:0;stroke-opacity:1"
             id="path284" /><path
             d="m 87.630827,101.02794 14.565003,-7.546824 c 0.17332,-0.0898 0.36055,-0.121772 0.54053,-0.103353 0.11446,-0.01493 0.23425,-0.0099 0.35347,0.01912 L 117.97885,97.01165 107.67146,80.035425 97.239543,77.502246 87.630827,82.48127 Z"
             style="display:inline;fill:#004d11;fill-opacity:1;stroke:#00350f;stroke-width:0;stroke-opacity:1"
             id="path285" /><path
             d="m 87.630827,80.314478 8.966894,-4.646228 c 0.173305,-0.0898 0.36056,-0.121765 0.540536,-0.103353 0.114464,-0.01493 0.233719,-0.0093 0.35295,0.01964 l 8.770523,2.129069 -10.616405,-17.486271 -4.309815,-1.046448 -3.704683,1.919779 z"
             style="display:inline;fill:#004d11;fill-opacity:1;stroke:#00350f;stroke-width:0;stroke-opacity:1"
             id="path286" /><path
             d="m 87.630827,58.93387 3.063379,-1.586983 c 0.173364,-0.08983 0.360504,-0.121811 0.540535,-0.103353 0.114455,-0.01493 0.23373,-0.0098 0.35295,0.01912 l 2.647901,0.642854 -6.604765,-10.878405 z"
             style="display:inline;fill:#004d11;fill-opacity:1;stroke:#00350f;stroke-width:0;stroke-opacity:1"
             id="path287" /><rect
             style="display:inline;fill:#0e2013;fill-opacity:1;stroke-width:0.203573"
             id="rect287"
             width="3.8470492"
             height="33.66293"
             x="166.40317"
             y="-41.95974"
             transform="rotate(62.609594)"
             ry="0.96176231" /><rect
             style="display:inline;fill:#0e2013;fill-opacity:1;stroke-width:0.203573"
             id="rect288"
             width="3.8470492"
             height="36.076859"
             x="-102.15506"
             y="139.75331"
             transform="rotate(-76.35427)"
             ry="1.3464673" /><path
             d="m 83.75672,36.323009 0.02366,126.317901 1.923208,3e-4 -0.02365,-126.317895 z"
             style="display:inline;fill:#0e2013;fill-opacity:1;stroke-width:0.176728"
             id="path288" /><rect
             style="display:inline;fill:#0e2013;fill-opacity:1;stroke-width:0.223479"
             id="rect289"
             width="3.0339525"
             height="6.7779794"
             x="78.117706"
             y="139.03171"
             ry="0.76940984" /><rect
             style="display:inline;fill:#0e2013;fill-opacity:1;stroke-width:0.203573"
             id="rect290"
             width="2.6929345"
             height="123.87884"
             x="-54.640087"
             y="-194.99529"
             transform="rotate(148.73601)"
             ry="1.3464673" /><path
             style="display:inline;fill:#1a1a1a;fill-opacity:0;stroke:#0e2013;stroke-width:1.92352;stroke-dasharray:none;stroke-opacity:1;paint-order:stroke fill markers"
             id="path290"
             d="m 84.738403,162.58469 a 8.5413055,9.2895384 0 0 1 -4.830038,8.36679 8.5413055,9.2895384 0 0 1 -9.027421,-1.09592 8.5413055,9.2895384 0 0 1 -3.014938,-9.31915" /><path
             style="display:inline;fill:#1a1a1a;fill-opacity:0;stroke:#0e2013;stroke-width:1.92352;stroke-dasharray:none;stroke-opacity:1;paint-order:stroke fill markers"
             id="path291"
             d="m 81.659911,162.59911 a 5.4015565,5.4791465 0 0 1 -5.391457,5.47913 5.4015565,5.4791465 0 0 1 -5.411619,-5.45864" /><path
             style="display:inline;fill:#1a1a1a;fill-opacity:0;stroke:#0e2013;stroke-width:1.92368;stroke-linecap:butt;stroke-dasharray:none;stroke-opacity:1;paint-order:stroke fill markers"
             id="path292"
             d="m -107.54332,-139.09012 a 1.605579,1.8202335 0 0 1 -1.44718,1.88157 1.605579,1.8202335 0 0 1 -1.74289,-1.52575"
             transform="matrix(-0.96959963,-0.24469685,0.26182956,-0.96511413,0,0)" /><rect
             style="display:inline;fill:#0e2013;fill-opacity:1;stroke:#c6e5cf;stroke-width:0;stroke-linecap:butt;stroke-dasharray:none;stroke-opacity:1;paint-order:stroke fill markers"
             id="rect292"
             width="1.9273717"
             height="1.7619485"
             x="86.962219"
             y="152.42274"
             ry="0"
             transform="rotate(6.1673837)" /><ellipse
             style="display:inline;fill:#0e2013;fill-opacity:1;stroke:#0e2013;stroke-width:0;stroke-linecap:butt;stroke-dasharray:none;stroke-opacity:1;paint-order:markers fill stroke"
             id="ellipse294"
             cx="78.550415"
             cy="43.906891"
             rx="1.32603"
             ry="1.8635852"
             transform="rotate(-6.6950398)" /><path
             style="display:inline;fill:#0e2013;fill-opacity:1;stroke:#0e2013;stroke-width:0;stroke-linecap:butt;stroke-dasharray:none;stroke-opacity:1;paint-order:markers fill stroke"
             d="m 85.099417,38.424009 -2.231196,-2.878956 -8.106418,17.006675 3.885274,5.509952 6.277522,-0.745827 z"
             id="path294" /></g></g></g><path
       d="m 1413.8691,540.77539 v 16.27148 h 71.2266 v 187.88868 h 18.4199 V 557.04687 h 71.2246 v -16.27148 z"
       style="letter-spacing:0.999416px;white-space:pre;shape-inside:url(#rect2);display:inline;fill:#0e2013;stroke:#000000;stroke-width:0;stroke-linejoin:round;paint-order:stroke markers fill"
       id="path9" /><path
       d="m 1313.6973,537.70508 c -53.7264,0 -87.4961,22.71729 -87.4961,105.60937 0,80.43603 33.4637,104.68946 85.041,104.68946 15.9644,0 36.5338,-2.14758 54.0332,-6.13868 l -1.8418,-15.6582 c -17.1924,3.37709 -36.227,5.83399 -52.1914,5.83399 -41.139,0 -65.7012,-19.03545 -65.7012,-89.03321 0,-71.5328 24.5615,-89.03125 67.8496,-89.03125 15.0434,0 32.5418,2.14904 48.1992,4.91211 l 2.4571,-16.27148 c -15.3504,-2.76307 -32.8502,-4.91211 -50.3496,-4.91211 z"
       style="letter-spacing:0.999416px;white-space:pre;shape-inside:url(#rect2);display:inline;fill:#0e2013;stroke:#000000;stroke-width:0;stroke-linejoin:round;paint-order:stroke markers fill"
       id="path8" /><path
       d="M 1043.4434,540.77539 V 702.875 c 0,27.01668 18.1135,42.06055 47.2793,42.06055 h 72.1464 v -16.27149 h -72.1464 c -18.1135,0 -28.8594,-7.6756 -28.8594,-25.78906 v -55.26172 h 85.041 V 631.3418 h -85.041 v -74.29493 h 96.4004 v -16.27148 z"
       style="letter-spacing:0.999416px;white-space:pre;shape-inside:url(#rect2);display:inline;fill:#0e2013;stroke:#000000;stroke-width:0;stroke-linejoin:round;paint-order:stroke markers fill"
       id="path6" /><path
       d="m 930.37695,540.77539 v 186.35352 c 0,21.18353 -9.82388,38.37626 -41.13867,65.08593 l 10.4375,13.20118 c 35.30589,-29.16574 49.12109,-48.20036 49.12109,-78.28711 V 540.77539 Z"
       style="letter-spacing:0.999416px;white-space:pre;shape-inside:url(#rect2);display:inline;fill:#0e2013;stroke:#000000;stroke-width:0;stroke-linejoin:round;paint-order:stroke markers fill"
       id="path5" /><path
       d="m 764.19922,537.70508 c -52.80533,0 -83.50781,28.24379 -83.50781,105.30273 0,76.44493 30.70248,104.9961 83.50781,104.9961 52.80533,0 83.50586,-28.55117 83.50586,-104.9961 0,-77.05894 -30.70053,-105.30273 -83.50586,-105.30273 z m 0,16.27148 c 41.75305,0 64.16406,22.41058 64.16406,89.03125 0,66.62068 -22.41101,89.03321 -64.16406,89.03321 -41.75305,0 -64.16602,-22.41253 -64.16602,-89.03321 0,-66.62067 22.41297,-89.03125 64.16602,-89.03125 z"
       style="letter-spacing:0.999416px;white-space:pre;shape-inside:url(#rect2);display:inline;fill:#0e2013;stroke:#000000;stroke-width:0;stroke-linejoin:round;paint-order:stroke markers fill"
       id="path4" /><path
       d="m 470.30469,540.77539 v 204.16016 h 18.41992 v -84.1211 c 15.65739,2.45606 30.08614,3.99219 42.98047,3.99219 23.63959,0 34.38535,16.57795 42.06054,34.69141 l 18.72852,45.4375 h 19.64844 l -20.57031,-49.42969 c -7.6752,-17.49944 -13.20102,-27.6295 -26.40235,-35.30469 26.70967,-7.67519 42.67383,-24.56155 42.67383,-58.02539 0,-47.5862 -26.09666,-61.40039 -74.29688,-61.40039 z m 18.41992,16.27148 h 44.82226 c 38.98999,0 54.95508,9.82302 54.95508,45.12891 0,31.6218 -14.42822,46.66602 -56.48828,46.66602 -13.20133,0 -27.32466,-1.22912 -43.28906,-3.99219 z"
       style="letter-spacing:0.999416px;white-space:pre;shape-inside:url(#rect2);display:inline;fill:#0e2013;stroke:#000000;stroke-width:0;stroke-linejoin:round;paint-order:stroke markers fill"
       id="path3" /><path
       d="m 251.62695,540.77539 v 204.16016 h 18.42188 v -80.74414 c 15.65739,2.45606 30.08614,3.99218 42.98047,3.99218 49.12123,0 76.13672,-18.42149 76.13672,-64.47265 0,-47.5862 -26.09471,-62.93555 -74.29493,-62.93555 z m 18.42188,16.27148 h 44.82226 c 38.98998,0 54.95508,11.35818 54.95508,46.66407 0,31.62179 -14.43017,48.50781 -56.49023,48.50781 -13.20133,0 -27.32271,-1.22912 -43.28711,-3.99219 z"
       style="letter-spacing:0.999416px;white-space:pre;shape-inside:url(#rect2);display:inline;fill:#0e2013;stroke:#000000;stroke-width:0;stroke-linejoin:round;paint-order:stroke markers fill"
       id="path1" /><path
       d="m 489.83203,832.6582 v 227.1289 h 19.81055 V 858.61523 l 84.70312,127.73829 h 20.49219 l 84.70313,-127.73829 v 201.17187 h 19.81054 V 832.6582 H 693.05273 L 604.5918,965.86133 516.13086,832.6582 Z"
       style="line-height:0;letter-spacing:-0.289156px;white-space:pre;shape-inside:url(#rect2-2);display:inline;fill:#004d11;stroke:#000000;stroke-width:0;stroke-linejoin:round;paint-order:stroke markers fill"
       id="path15" /><path
       d="m 790.35937,832.6582 v 221.6641 c 24.24977,5.1232 53.96517,8.5371 70.35938,8.5371 58.06282,0 79.58008,-25.9573 79.58008,-63.52737 0,-35.52078 -19.12714,-50.89023 -40.64453,-55.67187 19.12657,-6.48938 34.15429,-21.51697 34.15429,-52.59766 0,-42.01016 -26.64059,-58.4043 -74.45703,-58.4043 z m 20.49219,18.10157 h 48.5 c 36.88697,0 52.93946,11.95441 52.93946,40.30273 0,29.7145 -19.1254,45.42578 -51.57227,45.42578 h -49.86719 z m 0,103.83007 h 50.20899 c 43.71788,0 58.0625,15.02819 58.0625,45.42576 0,26.9822 -14.68616,44.4004 -58.0625,44.4004 -12.97875,0 -32.10705,-1.7076 -50.20899,-5.123 z"
       style="line-height:0;letter-spacing:-0.289156px;white-space:pre;shape-inside:url(#rect2-2);display:inline;fill:#004d11;stroke:#000000;stroke-width:0;stroke-linejoin:round;paint-order:stroke markers fill"
       id="path14" /><path
       d="m 995.9375,832.6582 v 227.1289 h 20.4922 v -93.58398 c 17.4188,2.73237 33.4715,4.43946 47.8164,4.43946 26.299,0 38.2543,18.44449 46.793,38.59572 l 20.8339,50.5488 h 21.8575 l -22.8828,-54.9902 c -8.5387,-19.46815 -14.6866,-30.73872 -29.3731,-39.27737 29.7145,-8.53865 47.4746,-27.32422 47.4746,-64.55273 0,-52.93963 -29.0316,-68.3086 -82.6543,-68.3086 z m 20.4922,18.10157 h 49.8652 c 43.3764,0 61.1367,10.92924 61.1367,50.20703 0,35.17923 -16.0519,51.91601 -62.8437,51.91601 -14.6865,0 -30.3978,-1.36749 -48.1582,-4.4414 z"
       style="line-height:0;letter-spacing:-0.289156px;white-space:pre;shape-inside:url(#rect2-2);display:inline;fill:#004d11;stroke:#000000;stroke-width:0;stroke-linejoin:round;paint-order:stroke markers fill"
       id="path13" /><path
       d="m 1206.9805,832.6582 v 180.3359 c 0,30.0561 20.1508,46.793 52.5976,46.793 h 80.2637 v -18.1035 h -80.2637 c -20.1512,0 -32.1054,-8.5382 -32.1054,-28.6895 v -61.47848 h 94.6074 v -18.10156 h -94.6074 v -82.65429 h 107.2461 V 832.6582 Z"
       style="line-height:0;letter-spacing:-0.289156px;white-space:pre;shape-inside:url(#rect2-2);display:inline;fill:#004d11;stroke:#000000;stroke-width:0;stroke-linejoin:round;paint-order:stroke markers fill"
       id="path12" /><path
       d="m 1391.7227,832.6582 v 227.1289 h 125.3476 v -18.1035 H 1412.2168 V 832.6582 Z"
       style="line-height:0;letter-spacing:-0.289156px;white-space:pre;shape-inside:url(#rect2-2);display:inline;fill:#004d11;stroke:#000000;stroke-width:0;stroke-linejoin:round;paint-order:stroke markers fill"
       id="path11" /><path
       d="m 1556.998,832.6582 v 227.1289 h 125.3477 v -18.1035 H 1577.4922 V 832.6582 Z"
       style="line-height:0;letter-spacing:-0.289156px;white-space:pre;shape-inside:url(#rect2-2);display:inline;fill:#004d11;stroke:#000000;stroke-width:0;stroke-linejoin:round;paint-order:stroke markers fill"
       id="path10" /><path
       d="m 254.88086,832.6582 v 147.54688 c 0,47.81642 23.90894,82.99612 86.07031,82.99612 38.25315,0 62.84388,-7.8559 81.62891,-13.6621 V 832.6582 h -20.15039 v 203.9023 c -14.68648,4.0986 -35.86232,8.1973 -61.13672,8.1973 -49.86572,0 -65.91797,-28.3471 -65.91797,-64.89257 V 832.6582 Z"
       style="line-height:0;letter-spacing:-0.289156px;white-space:pre;shape-inside:url(#rect2-2);display:inline;fill:#004d11;stroke:#000000;stroke-width:0;stroke-linejoin:round;paint-order:stroke markers fill"
       id="path2" /><path
       d="m 1799,829 -83,231 h 19.3105 L 1799,882.74609 1862.6895,1060 H 1882 Z"
       style="fill:#004d11;fill-opacity:1;stroke:#000000;stroke-width:0;stroke-linejoin:round;paint-order:stroke markers fill"
       id="path7" /></g></svg>
